<?xml version="1.0" standalone="no"?>
<!DOCTYPE svg PUBLIC "-//W3C//DTD SVG 20010904//EN"
 "http://www.w3.org/TR/2001/REC-SVG-20010904/DTD/svg10.dtd">
<svg version="1.0" xmlns="http://www.w3.org/2000/svg"
 width="800.000000pt" height="800.000000pt" viewBox="0 0 800.000000 800.000000"
 preserveAspectRatio="xMidYMid meet">
<metadata>
Created by potrace 1.14, written by Peter Selinger 2001-2017
</metadata>
<g transform="translate(0.000000,800.000000) scale(0.100000,-0.100000)"
fill="#000000" stroke="none">
<path d="M2532 7064 c-120 -36 -193 -78 -281 -159 -42 -38 -123 -151 -148
-205 -59 -129 -75 -309 -38 -450 28 -110 99 -234 180 -315 68 -68 197 -140
305 -170 85 -23 242 -24 330 0 413 109 622 552 444 941 -133 290 -488 451
-792 358z"/>
<path d="M5114 7071 c-250 -68 -443 -268 -493 -513 -15 -72 -16 -212 -1 -273
6 -27 13 -57 15 -66 2 -10 19 -50 38 -90 108 -229 343 -380 592 -382 101 0
161 8 233 34 114 41 171 78 262 170 75 76 121 148 158 251 25 67 27 85 26 218
0 133 -2 151 -28 218 -78 208 -223 350 -425 419 -105 36 -274 42 -377 14z"/>
<path d="M2063 3671 c2 -674 6 -1237 9 -1251 4 -14 9 -52 13 -85 5 -48 38
-210 59 -295 38 -149 155 -391 251 -519 59 -78 150 -177 219 -236 86 -75 279
-191 392 -236 169 -66 349 -117 479 -134 11 -2 55 -8 97 -14 171 -24 450 -31
661 -17 90 6 124 9 202 21 17 2 53 7 80 11 95 12 326 75 437 120 217 87 363
180 513 329 131 129 204 229 286 394 76 154 147 394 165 554 3 29 7 58 9 65
16 47 20 333 20 1357 l0 1160 -1948 1 -1948 0 4 -1225z m2550 -135 c6 -20 0
-940 -7 -986 -49 -318 -247 -494 -568 -504 -338 -11 -552 158 -619 489 -11 58
-23 959 -13 996 4 15 58 17 604 16 425 0 600 -3 603 -11z"/>
</g>
</svg>
