<?xml version="1.0" encoding="utf-8"?>
<!-- Generator: Adobe Illustrator 23.1.0, SVG Export Plug-In . SVG Version: 6.00 Build 0)  -->
<svg xmlns="http://www.w3.org/2000/svg" viewBox="0 0 504 432">
  <defs/>
  <g fill="#2A75BC">
    <path d="M254.17 165.39A85.82 85.82 0 00178.33 211a85.81 85.81 0 00-75.85-45.61 85.6 85.6 0 00-51.53 17.17v-72.33A17.14 17.14 0 0033.78 93.4a17.14 17.14 0 00-17.14 16.83v142.43h.02a85.83 85.83 0 0085.82 84.44 85.85 85.85 0 0075.85-45.6 85.87 85.87 0 1075.84-126.11M102.48 302.72a51.51 51.51 0 01-51.53-51.49 51.5 51.5 0 01103.01-.01 51.47 51.47 0 01-51.48 51.5m151.69 0a51.5 51.5 0 110-102.97 51.48 51.48 0 0151.49 51.47 51.48 51.48 0 01-51.49 51.5"/>
    <path d="M473.24 308.36l-46.67-57.24 46.72-57.35c5.91-7.57 4.21-18.13-3.94-23.74-8.17-5.66-19.62-4.21-25.94 3.13v-.01l-40.2 49.26-40.16-49.26v.01c-6.25-7.34-17.78-8.79-25.92-3.13-8.14 5.62-9.84 16.18-3.9 23.74h-.02l46.64 57.35-46.64 57.24h.02c-5.94 7.59-4.24 18.12 3.9 23.76 8.14 5.64 19.67 4.2 25.92-3.15l40.16-49.2 40.14 49.2c6.32 7.35 17.78 8.79 25.94 3.15 8.17-5.64 9.87-16.18 3.95-23.76"/>
  </g>
</svg>