<?xml version="1.0" encoding="utf-8"?>
<!-- Generator: Adobe Illustrator 25.2.1, SVG Export Plug-In . SVG Version: 6.00 Build 0)  -->
<svg version="1.1" id="Livello_2_1_" xmlns="http://www.w3.org/2000/svg" xmlns:xlink="http://www.w3.org/1999/xlink" x="0px"
	 y="0px" viewBox="0 0 36 20" style="enable-background:new 0 0 36 20;" xml:space="preserve">
<style type="text/css">
	.st0{fill:#EFB03D;}
</style>
<path class="st0" d="M18.1,4.2c0.5,0,0.9-0.4,0.9-0.9c0-0.2,0.1-0.3,0.3-0.3s0.3,0.1,0.3,0.3c0,0.5,0.4,0.9,0.9,0.9h0.9V2.9
	c0-0.9-0.7-1.7-1.7-1.7h-2.5c-0.9,0-1.7,0.7-1.7,1.7v1.3H18.1z"/>
<path class="st0" d="M18.4,7.7c-1,0-1.8-0.8-1.8-1.8V5.6c0-0.2,0.1-0.3,0.3-0.3s0.3,0.1,0.3,0.3v0.3c0,0.3,0.1,0.6,0.3,0.8
	s0.5,0.3,0.8,0.3c0.2,0,0.3,0.1,0.3,0.3S18.5,7.7,18.4,7.7z M20.4,4.7c-0.5,0-0.9-0.2-1.2-0.6c-0.3,0.4-0.7,0.6-1.2,0.6h-2.6v1.2
	c0,1,0.6,2,1.5,2.5c0.9,0.5,2,0.5,2.9,0c0.9-0.5,1.5-1.5,1.5-2.5V4.7H20.4z"/>
<path class="st0" d="M16.6,12.1l1.6-0.9c0,0,0,0,0.1,0h0.1c-0.3,0-0.6-0.3-0.6-0.6V9.7c0-0.1,0-0.2-0.1-0.2
	c-0.1-0.1-0.1-0.1-0.2-0.1h-0.9L16.6,12.1z"/>
<path class="st0" d="M18.4,11.2L18.4,11.2C18.5,11.2,18.5,11.2,18.4,11.2l1.7,1V9.4h-0.9c-0.2,0-0.3,0.1-0.3,0.3v0.9
	c0,0.2-0.1,0.3-0.2,0.4C18.7,11.1,18.5,11.2,18.4,11.2L18.4,11.2z"/>
<path class="st0" d="M18.8,12l-0.4-0.2L17.9,12l0.1,0.5c0,0,0,0.1,0,0.1l-0.3,3.9l0.6,0.4l0.6-0.4l-0.3-3.9c0,0,0-0.1,0-0.1L18.8,12
	z"/>
<path class="st0" d="M21.9,9.4h-1.2v3.2c0,0.1-0.1,0.2-0.1,0.3c0,0-0.1,0-0.1,0c-0.1,0-0.1,0-0.1,0l-0.9-0.5l-0.1,0.3l0.3,4
	c0,0.1,0,0.2-0.1,0.3l-0.9,0.6c-0.1,0.1-0.2,0.1-0.3,0L17.3,17c-0.1-0.1-0.1-0.2-0.1-0.3l0.3-4l-0.1-0.3l-0.9,0.5c0,0-0.1,0-0.1,0
	c-0.1,0-0.1,0-0.1,0c-0.1-0.1-0.1-0.1-0.1-0.3V9.4h-1.2c-1.3,0-2.3,1-2.3,2.3v6.8c0,0.1,0,0.2,0.1,0.2c0.1,0.1,0.1,0.1,0.2,0.1h11.1
	c0.1,0,0.2,0,0.2-0.1c0.1-0.1,0.1-0.1,0.1-0.2v-6.8C24.2,10.4,23.2,9.4,21.9,9.4L21.9,9.4z"/>
</svg>
