<?xml version="1.0" encoding="utf-8"?>
<!-- Generator: Adobe Illustrator 25.2.1, SVG Export Plug-In . SVG Version: 6.00 Build 0)  -->
<svg version="1.1" id="Livello_2_1_" xmlns="http://www.w3.org/2000/svg" xmlns:xlink="http://www.w3.org/1999/xlink" x="0px"
	 y="0px" viewBox="0 0 36 20" style="enable-background:new 0 0 36 20;" xml:space="preserve">
<style type="text/css">
	.st0{fill:#EFB03D;}
</style>
<path class="st0" d="M18.1,4.2c0.5,0,0.9-0.4,0.9-0.9C19,3.1,19.1,3,19.3,3s0.3,0.1,0.3,0.3c0,0.5,0.4,0.9,0.9,0.9h0.9V2.9
	c0-0.9-0.7-1.7-1.7-1.7h-2.5c-0.9,0-1.7,0.7-1.7,1.7v1.3H18.1z"/>
<g>
	<path class="st0" d="M16.9,8.4c0.9,0.5,2,0.5,2.9,0c0.9-0.5,1.5-1.5,1.5-2.5V4.7h-0.9c-0.5,0-0.9-0.2-1.2-0.6
		c-0.3,0.4-0.7,0.6-1.2,0.6h-2.6v1.2C15.4,6.9,16,7.9,16.9,8.4z M16.6,5.6c0-0.2,0.1-0.3,0.3-0.3c0.2,0,0.3,0.1,0.3,0.3v0.3
		c0,0.3,0.1,0.6,0.3,0.8C17.7,6.9,18,7,18.3,7c0.2,0,0.3,0.1,0.3,0.3s-0.1,0.4-0.2,0.4c-1,0-1.8-0.8-1.8-1.8V5.6z"/>
	<path class="st0" d="M21.9,9.4h-0.2h-1h-0.6h-0.9h-1.7h-0.9h-0.4H15c-1.3,0-2.3,1-2.3,2.3v6.8c0,0.1,0,0.2,0.1,0.2
		c0.1,0.1,0.1,0.1,0.2,0.1h11.1c0.1,0,0.2,0,0.2-0.1c0.1-0.1,0.1-0.1,0.1-0.2v-6.8C24.2,10.4,23.2,9.4,21.9,9.4z"/>
</g>
</svg>
