<svg id="Livello_2" data-name="Livello 2" xmlns="http://www.w3.org/2000/svg" viewBox="0 0 36 20"><defs><style>.cls-1{fill:#efb03d;}</style></defs><path class="cls-1" d="M19.25,3.18a2.22,2.22,0,0,1-.17-.66.71.71,0,0,0-.7-.64H16.75a.71.71,0,0,0-.7.64,2.22,2.22,0,0,1-.17.66ZM27,6V8.56c-1.28.85-1,.66-1.4.91a17,17,0,0,1-8,1.88,17,17,0,0,1-8-1.88c-.46-.28-.08,0-1.4-.91V6A2.81,2.81,0,0,1,11,3.18H13.8a.9.9,0,0,0,.89-.81A2.1,2.1,0,0,1,16.8.48h1.64a2.11,2.11,0,0,1,2.11,1.89.89.89,0,0,0,.89.81h2.81A2.81,2.81,0,0,1,27,6Zm-8.69,6.76A17.3,17.3,0,0,0,27,10.24v4.87a2.82,2.82,0,0,1-2.81,2.81H11a2.81,2.81,0,0,1-2.81-2.81V10.24a17.3,17.3,0,0,0,8.69,2.51v.39a.71.71,0,0,0,1.41,0Z"/></svg>