<svg id="Livello_2" data-name="Livello 2" xmlns="http://www.w3.org/2000/svg" viewBox="0 0 36 20"><defs><style>.cls-1{fill:#efb03d;}</style></defs><path class="cls-1" d="M14.25,3.53h8.23V6.12H14.25ZM12.36,1.14a1.61,1.61,0,0,0-1.61,1.61v14.5a1.61,1.61,0,0,0,1.61,1.61H23.64a1.61,1.61,0,0,0,1.61-1.61v-.81a1.62,1.62,0,0,1-1.61,1.62H12.76a1.23,1.23,0,0,1-1.18-1,1.59,1.59,0,0,0,.78.2H23.64a1.61,1.61,0,0,0,1.61-1.61v-.81a1.61,1.61,0,0,1-1.61,1.61H12.36a1.57,1.57,0,0,1-.68-.15,1.16,1.16,0,0,1,1.08-.65H23.64A1.62,1.62,0,0,0,25.25,14V2.75a1.61,1.61,0,0,0-1.61-1.61Z"/></svg>