<svg xmlns="http://www.w3.org/2000/svg" viewBox="0 0 36 20"><defs><style>.cls-1{fill:#efb03d;}</style></defs><g id="Livello_3" data-name="Livello 3"><path class="cls-1" d="M28.94,7.72a.72.72,0,0,1-.46.67l-1.2.46v5.36a1.76,1.76,0,0,1,1.06,1.62v1.75a.72.72,0,0,1-.72.72H25.51a.72.72,0,0,1-.72-.72V15.83a1.77,1.77,0,0,1,1.05-1.62V9.4L24.31,10l-1.44.55L19,12a3.67,3.67,0,0,1-2.57,0l-3.88-1.49L11.1,10,6.93,8.39A.73.73,0,0,1,6.93,7l9.49-3.63a3.67,3.67,0,0,1,2.57,0L28.48,7a.73.73,0,0,1,.46.68Z"/><path class="cls-1" d="M19,13.46a3.67,3.67,0,0,1-2.57,0L12.54,12l-1.44-.55v3a.7.7,0,0,0,.36.62,13.47,13.47,0,0,0,12.49,0,.71.71,0,0,0,.36-.63v-3L22.87,12Z"/></g></svg>