<?xml version="1.0" encoding="utf-8"?>
<!-- Generator: Adobe Illustrator 25.2.1, SVG Export Plug-In . SVG Version: 6.00 Build 0)  -->
<svg version="1.1" id="Livello_2_1_" xmlns="http://www.w3.org/2000/svg" xmlns:xlink="http://www.w3.org/1999/xlink" x="0px"
	 y="0px" viewBox="0 0 36 20" style="enable-background:new 0 0 36 20;" xml:space="preserve">
<style type="text/css">
	.st0{fill:#EFB03D;}
</style>
<g>
	<path class="st0" d="M23.9,10.2l-0.5,0.4c-0.2,0.1-0.3,0.3-0.3,0.5c0,0.2,0,0.4,0.1,0.6c0.2,0.2,0.4,0.3,0.7,0.3
		c0.2,0,0.3-0.1,0.5-0.2l0.5-0.4c0.2-0.1,0.3-0.3,0.3-0.5s0-0.4-0.1-0.6c-0.1-0.2-0.3-0.3-0.5-0.3C24.3,10,24.1,10,23.9,10.2z"/>
	<path class="st0" d="M26,6.2l-4.7,0l-1.4-4.4c-0.2-0.6-0.7-1.1-1.3-1.3c-1.1-0.3-2.2,0.3-2.6,1.3l-1.4,4.4h-4.3l-0.3,0
		C9.4,6.1,8.7,6.5,8.3,7C8,7.5,7.9,8,8,8.5c0.1,0.5,0.4,1,0.8,1.3l3.8,2.7l-1.5,4.4c-0.2,0.6-0.1,1.3,0.3,1.9
		c0.3,0.4,0.8,0.7,1.3,0.8c0.1,0,0.2,0,0.3,0c0.4,0,0.8-0.1,1.2-0.4l3.7-2.7l3.7,2.7c0.5,0.4,1.2,0.5,1.9,0.3c0.5-0.2,0.9-0.5,1.2-1
		c0.2-0.5,0.3-1,0.1-1.6L23.2,12l-1.4-4.2l4.1,0c0.2,0,0.4,0.2,0.4,0.4c0,0.1-0.1,0.2-0.2,0.3l-1.4,1l1,1.3l1.4-1
		c0.5-0.4,0.9-1,0.9-1.7C28,7.1,27.1,6.2,26,6.2z M12.7,17.5l1.7-5c0.1-0.3,0-0.7-0.3-0.9l-4.3-3C9.7,8.5,9.6,8.4,9.6,8.3
		c0-0.1,0-0.2,0.1-0.3c0.1-0.1,0.2-0.2,0.4-0.2l7.6,0c0.5,0,0.8-0.4,0.8-0.8c0-0.5-0.4-0.8-0.8-0.8h-1.3l1.2-3.9
		c0-0.1,0.1-0.2,0.2-0.2c0.1,0,0.2-0.1,0.3,0c0.1,0,0.2,0.1,0.2,0.2l3.3,10.2l1.7,5c0,0.1,0,0.2,0,0.3s-0.1,0.2-0.2,0.2
		c-0.1,0-0.3,0-0.4-0.1l-4.2-3.1c-0.1-0.1-0.3-0.2-0.5-0.2c-0.2,0-0.3,0.1-0.5,0.2l-4.2,3.1C13.2,17.9,13.1,18,13,18
		c-0.1,0-0.2-0.1-0.3-0.2C12.7,17.7,12.7,17.6,12.7,17.5z"/>
	<path class="st0" d="M17.9,14c1.6,0,2.8-1.3,2.8-2.8c0-0.8-0.3-1.5-0.8-2c-0.8-0.8-2-1-3.1-0.6c-0.4,0.2-0.6,0.7-0.5,1.1
		c0.2,0.4,0.6,0.6,1.1,0.5c0.8-0.3,1.6,0.3,1.6,1.1c0,0.6-0.5,1.2-1.2,1.2c-0.6,0-1.2-0.5-1.2-1.2c0-0.1,0-0.1,0-0.2
		c0.1-0.5-0.3-0.9-0.7-0.9c-0.2,0-0.4,0-0.6,0.2c-0.2,0.1-0.3,0.3-0.3,0.5c0,0.1,0,0.3,0,0.4C15.1,12.8,16.4,14,17.9,14z M15.5,10.9
		L15.5,10.9L15.5,10.9L15.5,10.9z"/>
</g>
</svg>
