<?xml version="1.0" encoding="utf-8"?>
<!-- Generator: Adobe Illustrator 25.2.1, SVG Export Plug-In . SVG Version: 6.00 Build 0)  -->
<svg version="1.1" id="Livello_2_1_" xmlns="http://www.w3.org/2000/svg" xmlns:xlink="http://www.w3.org/1999/xlink" x="0px"
	 y="0px" viewBox="0 0 36 20" style="enable-background:new 0 0 36 20;" xml:space="preserve">
<style type="text/css">
	.st0{fill:#EFB03D;}
</style>
<path class="st0" d="M14.5,7.4c0-0.7,0.2-1.3,0.5-1.9c0.4-0.6,0.9-1,1.5-1.3c1.1-0.5,2.4-0.4,3.4,0.3c0.9,0.6,1.5,1.6,1.6,2.8
	c0.1,1.1-0.4,2.2-1.3,2.9c-0.6,0.5-1,1.1-1.2,1.8c-0.1,0.5-0.6,0.8-1.1,0.6c-0.5-0.1-0.8-0.6-0.6-1.1c0.3-1.1,0.9-2.1,1.8-2.8
	c0.4-0.3,0.7-0.9,0.7-1.4c0-0.6-0.3-1.1-0.8-1.4c-0.5-0.3-1.2-0.4-1.7-0.1c-0.6,0.3-1,0.9-1,1.6c0,0.5-0.4,0.8-0.9,0.8
	C14.9,8.2,14.5,7.8,14.5,7.4L14.5,7.4z M18,17L18,17c-0.5,0-1-0.3-1.2-0.8c-0.2-0.5-0.1-1.1,0.3-1.4c0.4-0.4,0.9-0.5,1.4-0.3
	c0.5,0.2,0.8,0.7,0.8,1.2C19.3,16.4,18.7,17,18,17L18,17z M18,18.7c2.3,0,4.5-0.9,6.2-2.6c1.6-1.6,2.6-3.9,2.6-6.2s-0.9-4.5-2.6-6.2
	c-1.6-1.6-3.9-2.6-6.2-2.6s-4.5,0.9-6.2,2.6C10.2,5.5,9.3,7.7,9.3,10s0.9,4.5,2.6,6.2C13.5,17.8,15.7,18.7,18,18.7z"/>
</svg>
